<?xml version="1.0" encoding="UTF-8" standalone="no"?>
<!-- Created with Inkscape (http://www.inkscape.org/) -->

<svg
   width="56.728321mm"
   height="56.635139mm"
   viewBox="0 0 56.728319 56.635139"
   version="1.1"
   id="svg1"
   xml:space="preserve"
   xmlns="http://www.w3.org/2000/svg"
   xmlns:svg="http://www.w3.org/2000/svg"><defs
     id="defs1" /><g
     id="layer1"
     style="display:inline"
     transform="translate(-619.83094,91.067248)"><g
       id="g46"
       transform="translate(500.82245,1.2087603)"><text
         xml:space="preserve"
         style="font-size:55.3945px;font-family:Garamond;-inkscape-font-specification:Garamond;text-align:end;letter-spacing:0px;text-anchor:end;fill:#12a09a;fill-opacity:1;stroke:none;stroke-width:3.14384;stroke-linecap:round;stroke-dasharray:none;stroke-opacity:1"
         x="79.557915"
         y="120.81255"
         id="text43"><tspan
           id="tspan43"
           style="fill:#12a09a;fill-opacity:1;stroke:none;stroke-width:3.14384;stroke-opacity:1"
           x="79.557915"
           y="120.81255">C</tspan></text><text
         xml:space="preserve"
         style="font-size:55.3945px;font-family:Garamond;-inkscape-font-specification:Garamond;text-align:end;letter-spacing:0px;text-anchor:end;fill:#12a09a;fill-opacity:1;stroke:none;stroke-width:3.14384;stroke-linecap:round;stroke-dasharray:none;stroke-opacity:1"
         x="119.42815"
         y="120.97736"
         id="text44"><tspan
           id="tspan44"
           style="fill:#12a09a;fill-opacity:1;stroke:none;stroke-width:3.14384;stroke-opacity:1"
           x="119.42815"
           y="120.97736">H</tspan></text><text
         xml:space="preserve"
         style="font-size:55.3945px;font-family:Garamond;-inkscape-font-specification:Garamond;text-align:end;letter-spacing:0px;text-anchor:end;fill:#12a09a;fill-opacity:1;stroke:none;stroke-width:3.14384;stroke-linecap:round;stroke-dasharray:none;stroke-opacity:1"
         x="158.9689"
         y="120.97736"
         id="text45"><tspan
           id="tspan45"
           style="fill:#12a09a;fill-opacity:1;stroke:none;stroke-width:3.14384;stroke-opacity:1"
           x="158.9689"
           y="120.97736">A</tspan></text><text
         xml:space="preserve"
         style="font-size:56.1858px;font-family:Garamond;-inkscape-font-specification:Garamond;text-align:end;letter-spacing:0px;text-anchor:end;fill:#12a09a;fill-opacity:1;stroke:none;stroke-width:3.18875;stroke-linecap:round;stroke-dasharray:none;stroke-opacity:1"
         x="244.07477"
         y="121.77112"
         id="text46"><tspan
           id="tspan46"
           style="fill:#12a09a;fill-opacity:1;stroke:none;stroke-width:3.18875;stroke-opacity:1"
           x="244.07477"
           y="121.77112">S</tspan></text><g
         id="g3"
         style="display:inline;fill:#12a09a;fill-opacity:1;stroke:#12a09a;stroke-width:1.97253;stroke-dasharray:none;stroke-opacity:1"
         transform="matrix(0.21538219,0,0,0.21538219,188.71859,-164.87837)"><path
           style="fill:#12a09a;fill-opacity:1;stroke:#12a09a;stroke-width:1.97253;stroke-dasharray:none;stroke-opacity:1"
           d="m -210.51125,598.19629 c 0.16749,-0.48501 0.017,-1.52438 -0.33453,-2.3097 -0.42983,-0.96036 0.0512,-5.69538 1.46909,-14.46222 1.15948,-7.16891 3.28,-20.33604 4.71226,-29.26029 1.4822,-9.23546 3.02291,-16.70574 3.57622,-17.33967 1.25972,-1.44327 1.2335,-2.76787 -0.0742,-3.74679 -1.50976,-1.13021 -9.02339,-34.26887 -8.03886,-35.45515 0.4075,-0.49101 0.54483,-1.21003 0.30516,-1.59781 -0.56428,-0.91302 15.71191,-23.34288 16.93872,-23.34288 1.10282,0 16.96155,21.66319 17.17193,23.45703 0.44339,3.78067 0.0424,6.41841 -3.02995,19.92965 -1.99401,8.76915 -3.92092,15.59502 -4.72179,16.72645 -1.61219,2.27764 -1.69006,3.1182 -0.35885,3.87362 1.33382,0.75691 10.53713,57.80754 9.88563,61.28033 -0.35849,1.91087 -0.1961,2.50706 0.78543,2.88371 0.73942,0.28374 1.55115,0.0606 2.01717,-0.55454 0.98927,-1.3058 1.99043,-1.68485 19.4749,-7.37331 8.4767,-2.75784 15.55713,-4.67003 17.10775,-4.62024 2.10489,0.0676 2.64553,-0.17351 2.64553,-1.17982 0,-0.69563 -0.28384,-1.56637 -0.63075,-1.93498 -0.73924,-0.78547 -1.45682,-32.76929 -0.73521,-32.76929 1.87935,0 29.93006,10.07896 30.5998,10.99488 1.24217,1.69878 3.496539,0.96475 3.918019,-1.27571 0.45876,-2.4386 20.26806,-29.75466 22.19047,-30.59957 0.7966,-0.35011 1.44836,-1.27149 1.44836,-2.04752 0,-1.08536 -0.49383,-1.42722 -2.14004,-1.48149 -3.05003,-0.10055 -54.786549,-26.57141 -55.630749,-28.46334 -0.69078,-1.54809 -2.51061,-1.90872 -3.68841,-0.73092 -0.8595,0.85949 -35.0493,-2.0479 -35.44115,-3.01381 -0.13769,-0.33942 -0.96017,-0.887 -1.82771,-1.21684 -1.98019,-0.75286 -17.45944,-22.12776 -16.95261,-23.40941 0.48599,-1.22891 25.39274,-8.97675 28.36149,-8.82251 2.95134,0.15333 31.6836,17.17553 32.19953,19.07635 0.29289,1.07908 0.79054,1.2402 2.71541,0.87909 3.95069,-0.74115 60.273669,8.29546 62.120449,9.96677 1.1646,1.05395 1.35431,1.05086 2.44495,-0.0398 0.92352,-0.92352 0.99594,-1.36883 0.33078,-2.03399 -1.14193,-1.14193 -1.21269,-36.67216 -0.0773,-38.79372 0.98409,-1.83879 -0.82729,-4.09494 -2.32625,-2.89746 -0.66236,0.52914 -5.07163,-0.56595 -15.86698,-3.94071 -8.22234,-2.57041 -15.14643,-4.87792 -15.38686,-5.1278 -0.7664,-0.79652 17.90044,-25.29607 19.83377,-26.03112 2.13821,-0.81294 2.02939,-2.75495 -0.21712,-3.87496 -2.11984,-1.05685 -21.49994,-27.69737 -22.04982,-30.3104 -0.34789,-1.65316 -0.82299,-2.11642 -2.17049,-2.11642 -1.173479,0 -1.803089,0.45116 -1.969009,1.41094 -0.32862,1.90094 -42.35357,43.97587 -44.18545,44.23801 -1.09686,0.15695 -1.45181,0.73701 -1.47071,2.40341 -0.0319,2.81159 -13.05417,33.42993 -14.21808,33.42993 -0.48129,0 -1.17971,0.56924 -1.55206,1.26497 -0.79836,1.49176 -25.50887,9.7259 -27.21848,9.06986 -0.91817,-0.35233 -1.07862,-2.51606 -1.07862,-14.54552 0,-8.95078 0.25864,-14.13164 0.70547,-14.13164 0.38802,0 0.70548,-0.59663 0.70548,-1.32584 0,-1.72574 25.19656,-23.84691 27.5434,-24.18157 1.36447,-0.19457 1.80044,-0.7993 2.20917,-3.06431 0.74568,-4.13232 26.83998,-54.96842 28.36666,-55.26304 0.80108,-0.1546 1.14803,-0.76315 1.0055,-1.76369 -0.17418,-1.22269 -0.71052,-1.53725 -2.68678,-1.57574 -3.70538,-0.0722 -35.47553,-10.5918 -36.37697,-12.04502 -0.97936,-1.57885 -3.12959,-0.78033 -3.12959,1.16223 0,1.18036 -17.88369,27.50953 -18.68543,27.50953 -0.56153,0 -18.36257,-25.86038 -18.45336,-26.80802 -0.0558,-0.58202 -0.13512,-1.45505 -0.17637,-1.94006 -0.10586,-1.24488 -2.85732,-1.10036 -3.34703,0.17581 -0.53462,1.3932 -32.95101,11.98056 -36.07981,11.78385 -3.15616,-0.19844 -3.69328,1.48763 -1.25639,3.94394 2.61,2.6308 27.32499,51.27987 27.84675,54.81365 0.34458,2.33369 0.73341,2.87679 2.27293,3.17463 2.61431,0.50577 27.41995,22.24089 27.41995,24.02582 0,0.75781 0.31746,1.37783 0.70547,1.37783 0.44684,0 0.70548,5.18086 0.70548,14.13164 0,11.46248 -0.18656,14.20321 -0.98774,14.51064 -1.6462,0.63171 -26.04252,-7.40974 -27.14092,-8.94612 -0.53234,-0.7446 -1.326,-1.35997 -1.76369,-1.36749 -1.08844,-0.0187 -14.04127,-30.61935 -14.12926,-33.37993 -0.052,-1.63113 -0.44178,-2.27772 -1.48149,-2.45745 -1.90094,-0.32862 -43.97586,-42.35357 -44.238,-44.18546 -0.30761,-2.14966 -3.7267,-2.03267 -3.75455,0.12848 -0.0261,2.02657 -20.26356,29.95876 -22.37775,30.8863 -2.02811,0.88977 -2.08576,3.32719 -0.0908,3.83955 1.87733,0.48216 20.47922,25.26748 19.59019,26.10214 -0.34579,0.32464 -4.91446,1.91376 -10.15261,3.53138 -5.23815,1.61761 -11.77536,3.67562 -14.52713,4.57335 -3.60559,1.17628 -5.35078,1.43775 -6.24736,0.93599 -0.89208,-0.49923 -1.52982,-0.41054 -2.2538,0.31344 -1.01596,1.01596 -0.64642,3.37661 0.52859,3.37661 0.35332,0 0.62999,7.95361 0.62999,18.11041 0,15.78632 -0.14829,18.27428 -1.15557,19.38731 -0.94207,1.04098 -0.99129,1.47486 -0.26636,2.34834 1.12585,1.35657 2.59377,1.37344 3.3409,0.0384 0.36839,-0.65828 3.00441,-1.40976 7.26617,-2.07144 7.53269,-1.16954 18.81174,-2.95181 38.33677,-6.05782 7.89453,-1.25585 14.38074,-1.94496 15.94793,-1.69436 2.22101,0.35515 2.69855,0.20439 2.99965,-0.94704 0.56189,-2.14866 28.92707,-18.78511 32.32657,-18.95984 1.64343,-0.0845 7.51934,1.42105 15.25482,3.90858 10.60761,3.41114 12.57412,4.25804 12.53295,5.39747 -0.0699,1.9354 -15.02297,22.16145 -16.91598,22.88117 -0.87026,0.33087 -1.69495,0.87929 -1.83264,1.21871 -0.1377,0.33942 -7.9522,1.31293 -17.36555,2.16335 -13.90415,1.25612 -17.38775,1.38052 -18.5679,0.66304 -1.26883,-0.77139 -1.64739,-0.64863 -2.99083,0.9698 -2.1262,2.56144 -53.05573,28.45532 -55.58801,28.26236 -1.18631,-0.0904 -2.04359,0.28226 -2.32272,1.00966 -0.48598,1.26643 0.68906,3.09052 1.99085,3.09052 1.24037,0 21.88356,28.78189 21.90841,30.54593 0.0269,1.91122 2.42143,2.5089 3.59908,0.89835 0.69718,-0.95345 28.86487,-10.98553 30.84475,-10.98553 0.82457,0 -0.22195,31.88949 -1.08204,32.97195 -1.19324,1.50174 -0.013,3.20668 1.95886,2.82973 2.2673,-0.43342 35.70225,10.41038 36.50136,11.83832 0.70839,1.26582 3.09962,1.37174 3.5195,0.1559 z m -20.89427,-7.60654 c -9.25497,-3.01581 -17.12852,-5.78461 -17.49679,-6.15288 -0.42246,-0.42246 3.42276,-5.00451 10.4187,-12.41515 6.09855,-6.46007 11.27327,-11.56058 11.49938,-11.33448 0.95577,0.95577 13.35844,34.54091 12.90436,34.94367 -0.27415,0.24317 -8.07069,-2.02535 -17.32565,-5.04116 z m 61.3465,5.06473 c -0.26016,-0.43691 12.46145,-34.39171 13.13925,-35.06951 0.46148,-0.46148 22.06006,22.30654 22.06006,23.25447 0,0.8614 -5.06676,2.72566 -22.91554,8.43153 -6.60658,2.11198 -12.13428,3.63456 -12.28377,3.38351 z m -1.76221,-2.61971 c -0.0417,-0.41376 -0.84952,-5.65191 -1.79508,-11.64033 -4.94897,-31.34286 -6.77464,-42.83084 -7.10458,-44.70545 l -0.36453,-2.07108 1.84406,1.71834 c 1.01423,0.94509 4.3846,4.49483 7.48971,7.88831 l 5.64565,6.16997 -1.18643,9.7032 c -1.69608,13.87138 -4.43942,33.82313 -4.5288,32.93704 z m -43.40054,-21.35041 -2.70055,-21.21029 7.28783,-7.76623 c 4.00831,-4.27143 7.37905,-7.67502 7.49055,-7.56352 0.11149,0.11149 -0.57185,5.09767 -1.51854,11.0804 -0.94669,5.98272 -2.87959,18.33807 -4.29534,27.45633 -1.41575,9.11826 -2.79668,17.17151 -3.06874,17.89612 -0.27723,0.73838 -1.68168,-8.00552 -3.19521,-19.89281 z m -3.90089,2.29003 -5.12129,-16.64899 2.05227,-2.53566 c 1.12875,-1.39461 2.38968,-2.64812 2.80206,-2.78558 0.45967,-0.15322 1.07844,2.42265 1.59915,6.657 0.46714,3.79882 1.60262,12.45256 2.52327,19.23054 0.92065,6.77799 1.58209,12.41543 1.46987,12.52764 -0.11222,0.11222 -2.50862,-7.28801 -5.32533,-16.44495 z m 49.33072,14.1101 c -0.0251,-1.44062 4.44855,-35.94248 4.69662,-36.22172 0.4319,-0.48618 4.4324,3.60729 4.86866,4.98181 0.2195,0.6916 -1.72036,8.01673 -4.31081,16.27807 -4.49624,14.33925 -5.22901,16.42575 -5.25447,14.96184 z m -71.3189,-21.96014 c 4.24397,-8.45417 8.16355,-15.96428 8.71019,-16.68914 0.9116,-1.20879 1.15691,-0.87097 2.96261,4.07995 l 1.96871,5.39787 -3.75164,4.03301 c -2.06341,2.21815 -6.86891,7.29922 -10.67891,11.29126 l -6.92725,7.25826 z m 103.42923,12.75373 c -1.16403,-1.26784 -5.87206,-6.27447 -10.46228,-11.12587 l -8.34586,-8.82071 1.97981,-5.32376 c 1.0889,-2.92807 2.14609,-5.32117 2.34933,-5.318 0.35023,0.005 17.00844,32.69879 16.72829,32.83086 -0.0731,0.0344 -1.08525,-0.97469 -2.24929,-2.24252 z m -5.08346,-14.54456 c -8.50945,-16.77467 -9.2558,-18.57112 -8.1676,-19.65933 0.59535,-0.59535 9.053,1.78108 10.28778,2.89066 0.31025,0.2788 1.80688,7.25311 3.32584,15.49848 1.51897,8.24537 2.9532,15.59478 3.18719,16.33203 1.21414,3.82539 -1.10127,-0.21415 -8.63321,-15.06184 z m -106.73423,14.95372 c 0,-1.36926 5.67241,-31.26705 5.99303,-31.58766 0.14409,-0.1441 2.41582,-1.04379 5.04828,-1.99932 7.98535,-2.89853 7.92458,-2.38722 -2.05057,17.25315 -9.26055,18.2334 -8.99074,17.74322 -8.99074,16.33383 z m 115.08439,-5.41764 c -0.45331,-2.62577 -1.71267,-9.45672 -2.79858,-15.17988 -2.08274,-10.9769 -2.06225,-11.11103 1.49068,-9.7602 1.69265,0.64354 1.69944,0.68979 2.18827,14.90663 0.26969,7.84359 0.36738,14.38404 0.21709,14.53433 -0.15029,0.15029 -0.64414,-1.87511 -1.09746,-4.50088 z m -115.90853,-10.29947 c 0.12874,-7.43736 0.44621,-13.72712 0.70548,-13.97725 0.25927,-0.25013 1.4528,-0.66113 2.65229,-0.91332 l 2.18089,-0.45854 -2.63414,14.18269 c -1.44879,7.80048 -2.74765,14.29659 -2.88637,14.4358 -0.13872,0.1392 -0.14689,-5.83202 -0.0181,-13.26938 z m 27.05674,3.60809 c -1.90814,-4.99902 -2.7497,-8.09109 -2.31927,-8.52152 0.43043,-0.43043 0.96039,0.38222 1.46053,2.2396 0.43174,1.60334 1.59287,5.32057 2.58029,8.2605 2.72066,8.10041 1.66059,6.88207 -1.72155,-1.97858 z m 59.27499,7.20831 c 0.20349,-0.58202 1.41865,-4.48098 2.70035,-8.66437 1.45577,-4.75152 2.57945,-7.35707 2.99406,-6.94246 0.59408,0.59408 -4.50677,15.30998 -5.65217,16.30642 -0.22673,0.19724 -0.24574,-0.11758 -0.0422,-0.69959 z M -287.7203,554.81626 c -9.98502,-13.51623 -18.21695,-25.16697 -18.21695,-25.78266 0,-0.68949 4.70706,-0.58043 28.74808,0.66611 4.75313,0.24646 8.64206,0.7084 8.64206,1.02655 0,1.08425 -14.98292,28.13983 -15.58336,28.13983 -0.32893,0 -1.94435,-1.82243 -3.58983,-4.04983 z m 180.22702,-9.17831 c -3.961,-7.27493 -7.38909,-13.73422 -7.61797,-14.35396 -0.44874,-1.21503 1.42895,-1.38876 27.087459,-2.50627 9.60898,-0.4185 10.78462,-0.34941 10.22938,0.60115 -2.09643,3.589 -21.21123,29.42271 -21.79158,29.45138 -0.38801,0.0192 -3.946289,-5.91736 -7.907289,-13.1923 z m -159.53781,-1.2529 c 9.94226,-10.00092 14.1812,-13.82106 14.99133,-13.51018 0.90187,0.34608 1.12939,1.5398 1.12892,5.923 l -5.8e-4,5.48957 -7.58326,4.0516 c -4.1708,2.22838 -10.91664,5.83766 -14.99075,8.02062 l -7.40748,3.96901 z m 38.13189,8.05816 c -1.79768,-4.73164 -2.04971,-6.04783 -1.39057,-7.26194 0.7117,-1.31095 1.04151,-0.71611 2.84444,5.13023 2.6371,8.55125 1.57611,10.1069 -1.45387,2.13171 z m 70.74824,4.83556 c -0.17549,-0.48501 0.57792,-3.73261 1.67423,-7.21688 1.78514,-5.67347 2.07829,-6.1762 2.80726,-4.81411 0.67194,1.25553 0.43444,2.51479 -1.36111,7.21687 -1.1963,3.13278 -2.31599,5.69596 -2.48821,5.69596 -0.17221,0 -0.45669,-0.39683 -0.63217,-0.88184 z m 41.28085,-6.26295 c -18.06218,-9.80077 -16.22591,-8.16994 -16.22591,-14.41058 0,-4.2062 0.23258,-5.38619 1.12951,-5.73037 0.80916,-0.31051 5.06028,3.49733 14.9891,13.42615 7.62277,7.62278 13.70186,13.84542 13.50908,13.82809 -0.19278,-0.0173 -6.22358,-3.21831 -13.40178,-7.11329 z m -159.39346,6.21401 c 0.21808,-0.24756 5.93242,-3.45651 12.69854,-7.13099 l 12.30204,-6.68088 0.22519,2.53757 c 0.13752,1.54967 -0.13712,2.76709 -0.70547,3.12714 -0.51187,0.32426 -5.85135,2.2287 -11.86552,4.23208 -6.01417,2.00338 -11.41105,3.80511 -11.99306,4.00385 -0.58202,0.19874 -0.87979,0.15879 -0.66172,-0.0888 z m 155.6716,-3.94894 c -6.50915,-2.25089 -12.00646,-4.26417 -12.21624,-4.47395 -0.20978,-0.20978 -0.281,-1.5204 -0.15825,-2.91248 l 0.22317,-2.53106 12.22989,6.636 c 6.72643,3.6498 12.41432,6.82045 12.63975,7.04587 0.82181,0.82182 -1.10561,0.25134 -12.71832,-3.76438 z m 4.78007,-9.22977 -13.39009,-13.40401 h 5.05003 c 2.77751,0 5.50745,-0.17553 6.06652,-0.39007 0.73578,-0.28234 2.82976,2.98098 7.58241,11.8167 3.61124,6.71372 7.02586,12.92106 7.58803,13.79408 0.56217,0.87303 0.90311,1.58732 0.75766,1.58732 -0.14546,0 -6.29001,-6.03181 -13.65456,-13.40402 z m -162.59631,7.40749 c 7.52295,-14.05511 10.75913,-19.8049 11.51487,-20.45876 0.47339,-0.40958 3.11406,-0.55753 6.29583,-0.35274 l 5.48043,0.35274 -13.15597,13.05127 -13.15598,13.05128 z m 51.86156,-1.42423 c -1.0581,-3.4848 -1.97273,-6.61377 -2.03249,-6.95328 -0.10742,-0.61022 7.8786,-3.64256 8.32205,-3.15994 0.12627,0.13742 0.44915,2.48217 0.71752,5.21056 l 0.48794,4.9607 -2.7856,3.13898 -2.78559,3.13897 z m 64.29442,2.76076 c -2.69687,-3.10973 -2.70019,-3.1213 -2.20956,-7.70271 0.27025,-2.52356 0.73757,-4.74046 1.03848,-4.92643 0.46,-0.2843 2.52412,0.2896 7.5307,2.09378 0.60126,0.21667 0.33249,1.95087 -0.95487,6.16114 -0.98543,3.22277 -1.99691,6.22612 -2.24776,6.67411 -0.28479,0.50862 -1.47043,-0.35512 -3.15699,-2.29989 z m -56.21233,-4.89043 c -0.003,-0.76143 -0.20143,-3.00982 -0.44013,-4.9964 l -0.43401,-3.61198 7.53078,-2.52179 7.53077,-2.52178 -3.50623,4.01734 c -1.92843,2.20954 -5.11922,5.59272 -7.09064,7.51819 -2.8488,2.78239 -3.58567,3.21673 -3.59054,2.11642 z m 45.65395,-6.17748 -6.91002,-7.46895 2.67718,-0.74344 c 1.47244,-0.40889 4.97878,-0.74521 7.79186,-0.74737 l 5.11469,-0.004 v 2.35158 c 0,1.29337 -0.19155,2.54314 -0.42568,2.77726 -0.23412,0.23413 -2.98826,-0.51917 -6.1203,-1.674 -3.13205,-1.15482 -6.19449,-1.99298 -6.80544,-1.86257 -0.61094,0.1304 1.58926,1.10793 4.88935,2.17228 8.43552,2.72065 8.04933,2.30376 7.3197,7.90141 l -0.62131,4.7667 z m -77.39417,3.74673 c 0,-2.66337 0.18408,-2.90329 3.52738,-4.59747 1.94005,-0.9831 3.52737,-1.639 3.52737,-1.45756 0,0.18145 -0.33451,1.88965 -0.74335,3.79601 -0.56089,2.61534 -1.17511,3.66284 -2.50235,4.26757 -3.11135,1.41763 -3.80905,1.04972 -3.80905,-2.00855 z m 112.72188,1.9975 c -1.46552,-0.5358 -2.02069,-1.31284 -2.3544,-3.29531 -0.24017,-1.4268 -0.5952,-3.16904 -0.78895,-3.87164 -0.31102,-1.1278 0.0681,-1.06442 3.23623,0.54099 3.40941,1.72768 3.58852,1.9587 3.58852,4.62846 0,2.99769 -0.38069,3.20425 -3.6814,1.9975 z m -105.41446,-3.94944 c 0.2405,-1.45504 0.44077,-3.19464 0.44504,-3.86577 0.007,-1.06669 5.37423,-4.5833 6.01601,-3.94153 0.12524,0.12525 0.8502,1.81244 1.61101,3.74931 l 1.38329,3.52159 -4.3249,1.57926 c -2.3787,0.86859 -4.60454,1.58452 -4.94632,1.59096 -0.34178,0.006 -0.42464,-1.17878 -0.18413,-2.63382 z m 97.16612,1.18757 c -2.09923,-0.74518 -3.95699,-1.49507 -4.12835,-1.66644 -0.36386,-0.36386 1.90586,-7.45772 2.38614,-7.45772 1.42469,0 5.91324,3.08676 5.9195,4.07082 0.004,0.67113 0.20454,2.41073 0.44504,3.86577 0.49843,3.01551 0.51509,3.01123 -4.62233,1.18757 z m -86.1312,-0.65847 c 0,-0.38801 0.3362,-0.70547 0.74711,-0.70547 0.41091,0 0.5509,0.31746 0.3111,0.70547 -0.2398,0.38802 -0.576,0.70548 -0.74711,0.70548 -0.1711,0 -0.3111,-0.31746 -0.3111,-0.70548 z m 78.6604,0 c -0.23981,-0.38801 -0.0998,-0.70547 0.3111,-0.70547 0.41091,0 0.74711,0.31746 0.74711,0.70547 0,0.38802 -0.14,0.70548 -0.3111,0.70548 -0.17111,0 -0.50731,-0.31746 -0.74711,-0.70548 z m -80.1077,-3.351 c -0.3888,-1.06703 -1.06653,-2.8424 -1.50607,-3.94527 -0.77221,-1.9376 -0.0981,-3.23693 1.69908,-3.27504 0.74592,-0.0158 2.83775,7.60502 2.31823,8.44562 -0.77855,1.25973 -1.78463,0.76884 -2.51124,-1.22531 z m 80.13441,1.27781 c -0.51431,-0.83217 1.72757,-8.50892 2.4849,-8.50892 0.26964,0 0.85473,0.43916 1.3002,0.97592 0.61835,0.74507 0.51356,1.77419 -0.44302,4.35052 -1.25626,3.3835 -2.49111,4.55938 -3.34208,3.18248 z m -97.02945,-5.68702 v -4.93833 h 4.31513 c 4.13067,0 4.29694,0.0679 3.88974,1.58732 -0.23396,0.87303 -0.42972,2.29626 -0.43501,3.16275 -0.007,1.17632 -0.89732,2.02526 -3.51356,3.35101 -1.92715,0.97656 -3.6732,1.77557 -3.88011,1.77557 -0.2069,0 -0.37619,-2.22225 -0.37619,-4.93832 z m 24.09977,0.44271 c 2.46714,-5.00309 3.74259,-5.758 4.84215,-2.86595 1.39596,3.67166 0.91546,4.95365 -2.20732,5.88926 -1.59243,0.4771 -3.35548,1.04404 -3.91789,1.25986 -0.67283,0.25818 -0.234,-1.20673 1.28306,-4.28317 z m 66.02459,3.24608 c -3.60177,-1.19803 -4.09814,-2.33729 -2.66299,-6.11203 1.09526,-2.88075 2.37284,-2.14155 4.79778,2.77597 1.24369,2.52207 2.02612,4.55523 1.73873,4.51813 -0.28738,-0.0371 -2.03047,-0.56903 -3.87352,-1.18207 z m 21.86971,-0.56053 c -2.46572,-1.28353 -3.35355,-2.16013 -3.36064,-3.31815 -0.005,-0.86559 -0.20106,-2.28809 -0.43502,-3.16112 -0.4072,-1.51946 -0.24092,-1.58732 3.88975,-1.58732 h 4.31512 v 4.93833 c 0,2.71607 -0.2381,4.92354 -0.5291,4.90547 -0.29101,-0.0181 -2.03706,-0.81781 -3.88011,-1.77721 z m -92.43032,-2.53635 c -0.64037,-2.00251 -0.9997,-3.90729 -0.79849,-4.23284 0.52838,-0.85494 5.92635,-0.73015 5.92635,0.13701 0,0.7536 -3.39135,7.73676 -3.75734,7.73676 -0.11341,0 -0.73014,-1.63842 -1.37052,-3.64093 z m 73.55888,-0.59191 -2.13674,-4.23285 h 3.14316 c 1.72873,0 3.30307,0.25874 3.49852,0.57499 0.36489,0.5904 -1.55827,7.8907 -2.07869,7.8907 -0.15924,0 -1.25105,-1.90478 -2.42625,-4.23284 z m -62.78723,-0.63 v -2.89738 l 5.11469,0.0835 c 2.81308,0.0459 6.03483,0.28401 7.15943,0.52911 1.79861,0.39199 1.28909,0.69068 -4.23284,2.4813 -3.45268,1.11962 -6.67442,2.18534 -7.15943,2.36827 -0.61632,0.23246 -0.88185,-0.5398 -0.88185,-2.56477 z m -21.61719,-0.22006 c 0.23853,-0.89051 0.43803,-2.17467 0.44333,-2.85369 0.0124,-1.58885 3.2119,-1.6884 3.81426,-0.11867 0.70423,1.83518 0.53824,2.09768 -2.13154,3.3708 l -2.55975,1.22066 z m 96.75022,0.34211 c -2.79049,-1.43607 -2.69515,-1.27898 -1.79602,-2.95901 1.29646,-2.42246 3.32943,-1.8618 3.87942,1.06988 0.26221,1.39769 0.3769,2.63959 0.25488,2.75978 -0.12202,0.12019 -1.17425,-0.2716 -2.33828,-0.87065 z m -4.89823,-2.55013 c -1.24512,-0.91046 -1.22839,-0.97619 0.35389,-1.38997 2.02267,-0.52894 2.39829,-0.23689 1.57878,1.2275 -0.5349,0.9558 -0.81546,0.97939 -1.93267,0.16247 z m -86.81344,-0.4693 c -0.25162,-0.40713 0.40204,-0.7009 1.54568,-0.69467 1.53871,0.008 1.74514,0.16367 0.92348,0.69467 -1.35542,0.87594 -1.9278,0.87594 -2.46916,0 z m 17.46049,-1.20335 c -1.65269,-0.31832 -2.04944,-1.91218 -0.92027,-3.69696 0.355,-0.56111 0.393,-1.5135 0.0845,-2.11642 -0.35773,-0.69903 1.15088,-6.20741 4.16361,-15.20264 l 4.72461,-14.10641 1.16026,4.93525 c 5.19198,22.08446 6.78145,29.49853 6.44188,30.04797 -0.38767,0.62727 -12.55868,0.7355 -15.65454,0.13921 z m 38.44879,0.0422 c -0.19245,-0.33137 1.41873,-8.32625 3.5804,-17.76641 2.62471,-11.46229 4.10111,-16.7022 4.44449,-15.77398 3.33043,9.00302 8.77909,26.99617 8.37362,27.65225 -0.28813,0.4662 -0.1815,1.75472 0.23697,2.86336 0.41846,1.10864 0.5121,2.26445 0.20808,2.56847 -0.7712,0.7712 -16.41456,1.195 -16.84356,0.45631 z m -52.30643,-1.36566 c -1.06266,-2.76923 -0.57683,-3.11731 4.33373,-3.1049 l 4.76195,0.012 -3.52737,2.09236 c -4.03761,2.39503 -4.96897,2.56238 -5.56831,1.00051 z m 6.47973,-0.39492 c 2.49666,-1.59868 3.26495,-1.49302 2.55708,0.35165 -0.28366,0.73922 -1.24814,1.15488 -2.66213,1.1473 l -2.21732,-0.0119 z m 3.41905,0.45262 c 0.22334,-0.58201 0.68957,-1.05821 1.03607,-1.05821 0.3465,0 0.63,0.4762 0.63,1.05821 0,0.58202 -0.46624,1.05821 -1.03608,1.05821 -0.63111,0 -0.87735,-0.41361 -0.62999,-1.05821 z m 60.22044,0 c 0,-0.58201 0.2835,-1.05821 0.63,-1.05821 0.3465,0 0.81273,0.4762 1.03607,1.05821 0.24735,0.6446 0.001,1.05821 -0.63,1.05821 -0.56984,0 -1.03607,-0.47619 -1.03607,-1.05821 z m 2.52803,-0.10097 c -0.68796,-1.79281 -0.0718,-1.86467 2.5071,-0.29242 l 2.37235,1.44633 -2.21731,0.003 c -1.40777,0.002 -2.37972,-0.42059 -2.66214,-1.15655 z m 3.52903,-0.79803 -3.46685,-1.9229 4.43048,-0.21215 c 2.43677,-0.11669 4.59054,-0.0521 4.78616,0.14351 0.65259,0.65259 -0.53342,3.94901 -1.41454,3.93159 -0.47762,-0.009 -2.42849,-0.88246 -4.33525,-1.94005 z m -91.98981,0.76443 c -1.05507,-0.21192 -1.54875,-0.74267 -1.40192,-1.50722 0.1773,-0.92323 1.19678,-1.23142 4.68367,-1.41586 4.32122,-0.22858 4.44993,-0.18558 4.22382,1.41095 -0.19715,1.39204 -0.66962,1.66159 -3.05511,1.74297 -1.55205,0.0529 -3.55475,-0.0509 -4.45046,-0.23084 z m 8.33057,-0.92364 c 0,-0.77602 0.28043,-1.41095 0.62319,-1.41095 0.34276,0 0.78923,0.63493 0.99217,1.41095 0.2398,0.91702 0.0216,1.41095 -0.6232,1.41095 -0.54569,0 -0.99216,-0.63493 -0.99216,-1.41095 z m 2.82189,0.76317 c 0,-0.35627 -0.19269,-1.14993 -0.42821,-1.76368 -0.32011,-0.83418 0.0171,-1.11591 1.33547,-1.11591 1.59228,0 2.62012,1.12962 2.62012,2.87959 0,0.35628 -0.79366,0.64778 -1.76369,0.64778 -0.97003,0 -1.76369,-0.2915 -1.76369,-0.64778 z m 87.47883,0 c 0,-1.72809 1.01756,-2.87959 2.54464,-2.87959 1.74138,0 1.99736,0.48991 1.25999,2.41146 -0.44995,1.17255 -3.80463,1.58532 -3.80463,0.46813 z m 4.73391,-0.76317 c 0.20294,-0.77602 0.64941,-1.41095 0.99217,-1.41095 0.34275,0 0.62319,0.63493 0.62319,1.41095 0,0.77602 -0.44647,1.41095 -0.99217,1.41095 -0.64483,0 -0.863,-0.49393 -0.62319,-1.41095 z m 2.79115,0.94063 c -0.25867,-0.25867 -0.47032,-1.09548 -0.47032,-1.85957 0,-1.24687 0.33548,-1.34328 3.2731,-0.94064 1.80021,0.24675 3.86372,0.44863 4.58559,0.44863 0.72186,0 1.31248,0.43466 1.31248,0.96591 0,1.34736 -7.53859,2.54794 -8.70085,1.38567 z m -120.94615,-0.75249 c -5.47273,-0.49172 -2.31956,-1.59909 4.55331,-1.59909 5.91713,0 6.63876,0.13013 5.86852,1.05821 -0.87069,1.04912 -3.33928,1.17723 -10.42183,0.54088 z m 11.48004,-0.18814 c 0.2398,-0.38801 0.576,-0.70547 0.74711,-0.70547 0.1711,0 0.3111,0.31746 0.3111,0.70547 0,0.38801 -0.3362,0.70548 -0.74711,0.70548 -0.41091,0 -0.55091,-0.31747 -0.3111,-0.70548 z m 118.87244,-0.0416 c 0,-0.41091 0.31746,-0.55091 0.70547,-0.31111 0.38801,0.23981 0.70548,0.57601 0.70548,0.74711 0,0.17111 -0.31747,0.31111 -0.70548,0.31111 -0.38801,0 -0.70547,-0.3362 -0.70547,-0.74711 z m 2.11642,-0.31111 c -0.77024,-0.92808 -0.0486,-1.05821 5.86852,-1.05821 7.70736,0 9.60489,0.99366 3.17993,1.6652 -6.42696,0.67175 -8.07918,0.56092 -9.04845,-0.60699 z m -151.677,-0.35273 c -6.20283,-0.40297 -5.87442,-0.44546 4.40922,-0.57044 7.02719,-0.0854 11.11122,0.12427 11.11122,0.57044 0,0.74253 -4.09077,0.74253 -15.52044,0 z m 165.78649,0.0354 c 0,-0.486 3.80234,-0.74088 11.05243,-0.74088 6.078839,0 10.920159,0.11608 10.758479,0.25794 -0.16167,0.14187 -5.135259,0.47527 -11.052429,0.74088 -7.35133,0.33 -10.75848,0.24831 -10.75848,-0.25794 z m -182.71787,-1.87644 c 0.58201,-0.14652 8.67733,-1.70016 17.98959,-3.45252 9.31227,-1.75237 17.47575,-3.30906 18.14109,-3.45931 1.04768,-0.23661 0.98221,0.17572 -0.48878,3.07858 -1.63808,3.2326 -1.8316,3.36777 -5.44254,3.80143 -3.90263,0.46869 -32.05247,0.49835 -30.19936,0.0318 z m 181.6936,-0.69496 c -1.47716,-1.47716 -3.41465,-5.25331 -2.93929,-5.72866 0.36101,-0.36102 36.468239,6.06014 37.062069,6.59095 0.16167,0.14452 -7.19668,0.26276 -16.351889,0.26276 -14.29518,0 -16.80472,-0.15888 -17.77089,-1.12505 z m -185.92645,0.24595 c 0.733,-0.70329 52.20511,-26.72769 52.20511,-26.395 0,0.54646 -9.99307,18.8084 -10.2921,18.8084 -0.28937,0 -36.67806,6.7947 -40.14932,7.49691 -1.16404,0.23547 -1.9577,0.27583 -1.76369,0.0897 z m 40.73367,-3.17738 c 1.00829,-1.84305 1.88175,-3.4267 1.94102,-3.51921 0.0593,-0.0925 2.3866,-0.59911 5.17183,-1.12576 l 5.06406,-0.95755 v 4.47676 4.47676 h -7.00508 -7.00508 z m 17.11523,0.17637 c 1.71362,-1.74605 3.30326,-3.17464 3.53254,-3.17464 0.4779,0 2.11126,4.26857 2.11126,5.51752 0,0.54937 -1.48693,0.83175 -4.37974,0.83175 h -4.37973 z m 6.79356,2.10061 c -0.22668,-0.59071 -0.0376,-2.69666 0.42019,-4.67988 l 0.83233,-3.60585 1.21334,3.4453 c 1.71799,4.87823 1.65395,5.91445 -0.36551,5.91445 -0.92852,0 -1.87367,-0.48331 -2.10035,-1.07402 z m 3.77842,-3.7383 c -1.09774,-3.61406 -1.28981,-5.26443 -0.77137,-6.62802 0.43871,-1.15391 4.83265,-4.83093 12.05534,-10.08838 6.25076,-4.54998 11.20406,-8.43366 11.00732,-8.63039 -0.19673,-0.19673 -5.60524,3.51308 -12.01892,8.24403 -6.41367,4.73095 -11.97457,8.40807 -12.35756,8.17137 -0.38299,-0.2367 -1.65163,0.27591 -2.8192,1.13913 -1.16758,0.86323 -2.31851,1.37386 -2.55762,1.13474 -1.0298,-1.0298 -5.81708,-14.81644 -5.4642,-15.73605 0.21382,-0.55719 0.96264,-1.01308 1.66403,-1.01308 0.7014,0 8.49308,-0.65064 17.31484,-1.44586 10.11351,-0.91167 16.28681,-1.19861 16.70876,-0.77665 1.029,1.02899 -7.71351,26.88006 -9.75811,28.85417 -1.38683,1.33901 -2.41814,1.58731 -6.59281,1.58731 h -4.9488 z m 73.57683,3.22501 c -1.76034,-1.91446 -10.34155,-28.05725 -9.48934,-28.90946 0.32722,-0.32721 7.94763,0.0514 16.93425,0.84143 8.98662,0.79 16.78257,1.43637 17.32432,1.43637 1.95305,0 1.76945,2.27679 -0.72704,9.01581 -1.39718,3.77155 -2.7962,7.13571 -3.10892,7.47592 -0.31774,0.34567 -1.63295,-0.0392 -2.98116,-0.87249 -1.32691,-0.82008 -2.60419,-1.29944 -2.83839,-1.06524 -0.2342,0.2342 -5.6956,-3.45793 -12.13644,-8.20473 -6.44084,-4.74681 -11.87138,-8.4698 -12.06786,-8.27332 -0.19649,0.19648 4.77283,4.10878 11.04292,8.69401 7.0529,5.15767 11.6666,9.02094 12.09884,10.13093 0.531,1.3636 0.33443,2.93699 -0.81908,6.55613 l -1.51776,4.76195 h -5.1274 c -4.41453,0 -5.33032,-0.22068 -6.58694,-1.58731 z m 13.26134,0.35273 c 0.0301,-0.67902 0.61973,-2.8219 1.31035,-4.76195 l 1.25568,-3.52737 0.85398,4.04632 c 0.96918,4.5922 0.68588,5.47758 -1.75264,5.47758 -1.19056,0 -1.70518,-0.38103 -1.66737,-1.23458 z m 5.30832,0.64551 c -0.43283,-0.70033 1.02818,-5.7602 1.66322,-5.7602 0.24213,0 1.84228,1.42859 3.5559,3.17464 l 3.11566,3.17463 h -3.98536 c -2.19194,0 -4.14918,-0.26508 -4.34942,-0.58907 z m 10.15744,-3.89365 v -4.48272 l 5.12062,1.01891 c 5.06518,1.00787 5.14155,1.05641 7.05454,4.48272 l 1.93391,3.46381 h -7.05454 -7.05453 z m 33.510029,0.99053 c -9.700269,-1.85704 -18.747979,-3.57871 -20.106019,-3.82593 -2.71052,-0.49342 -2.3677,-0.0257 -8.77748,-11.97547 l -4.07563,-7.59821 14.71588,7.39365 c 23.664799,11.88983 38.075769,19.46763 36.938319,19.42348 -0.58201,-0.0226 -8.9948,-1.56047 -18.69507,-3.41752 z m -38.015579,-0.65365 c -4.29573,-4.36846 -4.15194,-6.16742 0.43432,-5.43405 1.62803,0.26034 3.06825,0.58153 3.20049,0.71378 0.13225,0.13225 0.14416,2.03719 0.0265,4.23321 l -0.21397,3.99276 z m -111.89773,-0.92285 c 0,-4.28387 0.46768,-4.80795 4.29054,-4.80795 3.03358,0 2.64807,1.94973 -1.11591,5.6438 l -3.17463,3.11566 z m 8.6504,-0.5751 c -0.56957,-1.36877 -0.48909,-2.0411 0.35942,-3.00259 1.43002,-1.62043 1.52388,-1.41741 0.899,1.94438 -0.50861,2.73632 -0.54678,2.76841 -1.25842,1.05821 z m 96.47809,0.35273 c -0.0176,-0.77602 -0.23631,-2.2046 -0.48593,-3.17463 -0.45203,-1.75658 -0.44772,-1.75827 1.06785,-0.41977 1.80348,1.59279 1.83769,1.84874 0.48592,3.63594 -1.02203,1.35124 -1.0362,1.35069 -1.06784,-0.0415 z M -256.4761,510.99403 c 3.77027,-7.08432 6.86525,-11.7583 5.98426,-9.03731 -0.23013,0.71076 -0.41841,4.26083 -0.41841,7.88905 0,7.37009 0.34172,6.91947 -5.91858,7.80474 l -3.44943,0.48778 z m 113.50343,5.89633 c -0.71928,-0.86668 -0.67107,-1.05821 0.26636,-1.05821 0.62953,0 1.14459,0.47619 1.14459,1.05821 0,0.58201 -0.11986,1.05821 -0.26635,1.05821 -0.1465,0 -0.66156,-0.4762 -1.1446,-1.05821 z m 14.46223,0.59617 c -5.04831,-1.06755 -4.58608,-0.16958 -4.58069,-8.89894 l 0.005,-7.92314 4.31576,7.76021 c 2.37367,4.26812 4.46895,8.15705 4.65617,8.64207 0.34101,0.88339 -1.41216,1.05081 -4.39613,0.4198 z m -113.93412,-0.94891 c 0,-0.38801 0.49493,-0.70547 1.09985,-0.70547 0.60492,0 0.90364,0.31746 0.66384,0.70547 -0.2398,0.38801 -0.73474,0.70547 -1.09985,0.70547 -0.36511,0 -0.66384,-0.31746 -0.66384,-0.70547 z m -7.05474,-7.5472 c 0,-4.12661 0.13081,-7.37064 0.29069,-7.20897 0.15989,0.16167 1.39593,3.23292 2.74677,6.825 l 2.45607,6.53105 -1.86492,0.40625 c -1.02571,0.22343 -2.26175,0.5285 -2.74677,0.67792 -0.66722,0.20555 -0.88184,-1.55434 -0.88184,-7.23125 z m 112.65787,6.99241 c -1.08995,-0.13885 -2.12097,-0.62638 -2.29117,-1.08341 -0.17019,-0.45703 0.75229,-3.64164 2.04996,-7.07691 l 2.3594,-6.24594 0.46087,4.40938 c 0.60969,5.83323 0.58328,9.70666 -0.0682,10.00612 -0.29101,0.13376 -1.42088,0.1296 -2.51083,-0.009 z m -175.09236,-30.47098 c 5.85324,-2.96632 30.68249,-14.82551 32.64473,-15.59209 1.27579,-0.49841 3.54684,0.27305 11.10248,3.77146 5.22425,2.41892 9.50256,4.58435 9.50737,4.81207 0.005,0.22771 -3.56272,0.939 -7.92785,1.58063 -4.36512,0.64163 -15.87317,2.42122 -25.57344,3.95464 -9.70028,1.53342 -19.06545,2.97487 -20.8115,3.20322 l -3.17463,0.4152 z m 226.457289,-0.40988 c -33.126869,-5.34608 -37.053229,-5.9545 -38.426999,-5.9545 -2.87708,0 -1.18546,-1.1489 8.1357,-5.52555 l 9.51432,-4.46734 17.443229,8.24903 c 21.10304,9.97979 21.45928,10.16412 19.55966,10.12115 -0.77602,-0.0176 -8.07768,-1.10781 -16.22591,-2.42279 z M -320.04674,468.60699 c 0,-10.06538 0.28171,-18.4748 0.62602,-18.68759 0.34432,-0.2128 6.29676,2.34277 13.22765,5.67904 6.93089,3.33627 13.31591,6.34096 14.18894,6.67708 0.87302,0.33611 1.58731,0.90832 1.58731,1.27157 0,0.36325 -2.85808,2.93966 -6.35129,5.72535 -3.49321,2.7857 -6.19514,5.31755 -6.0043,5.62635 0.19085,0.30879 -0.20507,0.99424 -0.87982,1.52322 -1.11018,0.87034 -1.13476,0.84441 -0.25859,-0.2728 1.8899,-2.40981 -0.0582,-1.1594 -7.41893,4.76195 -4.09981,3.29809 -7.73833,5.99653 -8.0856,5.99653 -0.35531,0 -0.63139,-8.00201 -0.63139,-18.3007 z m 240.874939,7.03034 c -7.72939,-6.1987 -14.14414,-11.54249 -14.25501,-11.8751 -0.24716,-0.74146 28.12214,-14.28727 28.90668,-13.8024 0.74503,0.46046 0.72644,36.94786 -0.0188,36.94786 -0.31867,0 -6.90346,-5.07166 -14.63285,-11.27036 z m -235.231149,9.62928 c 0.19401,-0.19383 6.64238,-4.81085 14.32972,-10.26004 l 13.97698,-9.90763 3.13078,1.52105 c 1.72192,0.83658 3.13077,1.72648 3.13077,1.97756 0,0.25108 -5.47625,3.09257 -12.16943,6.31443 -14.12788,6.80065 -22.90095,10.85631 -22.39882,10.35463 z m 237.867939,-2.97556 c -17.61228,-8.32001 -27.636559,-13.28864 -27.636559,-13.69831 0,-0.24843 1.40396,-1.1338 3.11992,-1.96748 l 3.119929,-1.51578 8.50383,5.96079 c 8.67203,6.07868 10.16107,6.91182 8.44699,4.7262 -0.87618,-1.11721 -0.8516,-1.14314 0.25858,-0.2728 0.67475,0.52898 1.07053,1.21465 0.87951,1.52373 -0.19101,0.30907 1.79663,2.06739 4.41699,3.90738 7.87383,5.52894 7.84348,5.5655 -1.10919,1.33627 z M -267.4889,473.07187 c -4.26812,-2.12387 -7.84337,-4.09743 -7.94501,-4.38569 -0.10164,-0.28826 1.56723,-1.38338 3.70858,-2.4336 l 3.89338,-1.90949 3.34616,4.29843 c 4.19055,5.38312 6.13016,8.40391 5.35549,8.34073 -0.32911,-0.0268 -4.09048,-1.78652 -8.3586,-3.91038 z m 9.03387,-3.97741 c -1.78505,-6.69568 -1.95831,-8.02982 -1.10814,-8.53293 0.55425,-0.32799 1.62236,-0.43562 2.37357,-0.23917 0.75122,0.19645 1.81378,-0.0908 2.36126,-0.63823 1.08553,-1.08553 12.24592,-1.27255 23.64931,-0.39629 l 5.97446,0.45909 -14.46623,8.64206 c -7.95643,4.75313 -14.96171,8.64206 -15.5673,8.64206 -0.80713,0 -1.66589,-2.11866 -3.21693,-7.93659 z m 114.61163,-0.4302 c -7.65711,-4.56898 -14.15129,-8.5365 -14.43151,-8.81672 -0.28022,-0.28022 6.14341,-0.37918 14.27475,-0.21991 14.78581,0.28963 19.71473,0.58178 20.33849,1.20554 0.18268,0.18268 -0.64702,3.90193 -1.84377,8.26501 -1.62066,5.90854 -2.46172,7.92527 -3.29593,7.90309 -0.61601,-0.0164 -7.38493,-3.76804 -15.04203,-8.33701 z m 18.9469,7.48495 c 0.28741,-0.48502 2.38248,-3.34029 4.6557,-6.34505 l 4.13314,-5.4632 4.32739,2.18446 4.3274,2.18447 -8.68602,4.16058 c -4.77731,2.28832 -8.8197,4.16058 -8.9831,4.16058 -0.1634,0 -0.0619,-0.39683 0.22549,-0.88184 z m -137.24461,-5.85411 c -4.23873,-5.72305 -4.39897,-6.08154 -3.14342,-7.0323 0.72765,-0.55101 1.71983,-1.01194 2.20485,-1.02428 0.48501,-0.0123 1.10369,-0.0393 1.37484,-0.0599 0.27115,-0.0206 1.34445,3.15406 2.38511,7.05475 1.04066,3.90069 1.83652,7.09216 1.76857,7.09216 -0.0679,0 -2.13342,-2.71371 -4.58995,-6.03047 z m 136.09983,4.83584 c 0,-0.5129 2.1503,-8.70633 3.2421,-12.35361 0.30544,-1.02034 0.6481,-1.08018 2.26267,-0.39511 3.20836,1.36132 3.23802,1.73433 0.44581,5.60731 -3.76366,5.22047 -5.95058,7.84504 -5.95058,7.14141 z m -175.66313,-0.43537 c 0,-0.66937 12.63024,-10.36306 13.50238,-10.36306 0.58741,0 0.41704,0.47188 -0.4707,1.30368 -1.75792,1.64715 -13.03168,9.48445 -13.03168,9.05938 z m 212.034669,-4.88577 c -3.85832,-2.76836 -6.62513,-5.16338 -6.14846,-5.32227 0.47667,-0.15889 2.52517,0.99062 4.55221,2.55448 4.32763,3.33874 9.46886,7.81662 8.96412,7.80753 -0.194,-0.004 -3.50954,-2.27138 -7.36787,-5.03974 z m -192.105019,-3.54362 c -1.64904,-0.82839 -2.99045,-1.68172 -2.9809,-1.89629 0.01,-0.21456 2.46989,-2.07394 5.46743,-4.13195 l 5.45006,-3.74184 1.98922,2.33089 c 3.79305,4.44455 3.78093,4.53789 -0.89563,6.89861 -4.94894,2.49822 -5.11358,2.50807 -9.03018,0.54058 z m 170.3527,-0.57776 -4.07585,-2.10359 2.14493,-3.11754 c 1.1797,-1.71464 2.43948,-3.29958 2.7995,-3.52209 0.61714,-0.38141 11.221789,6.59177 11.288869,7.4231 0.043,0.53343 -6.149689,3.49968 -7.218629,3.45765 -0.47463,-0.0187 -2.6971,-0.98055 -4.93882,-2.13753 z m -176.17286,-2.35338 c 0,-0.16059 2.02916,-1.90664 4.50925,-3.88011 2.96096,-2.3561 5.17717,-3.58811 6.45452,-3.58811 1.70369,0 1.27368,0.48187 -3.46247,3.88011 -4.63153,3.32317 -7.5013,4.69587 -7.5013,3.58811 z m 184.06309,-3.40828 c -4.41332,-3.12526 -4.97234,-3.73667 -3.59732,-3.93451 1.52298,-0.21912 7.814949,3.9289 10.056499,6.62981 1.86823,2.25108 -1.40004,0.88729 -6.459179,-2.6953 z m -199.23079,-3.72221 c -11.22358,-5.53246 -12.88759,-6.54182 -10.22938,-6.20496 5.72623,0.72564 32.65078,5.12556 32.90193,5.37671 0.23991,0.2399 -8.66718,7.59872 -9.06634,7.49039 -0.11121,-0.0302 -6.234,-3.02814 -13.60621,-6.66214 z m 33.36741,4.42422 c -3.23248,-4.30636 -3.23377,-4.29788 0.57128,-3.74828 5.73614,0.82853 6.62609,1.17398 6.62609,2.57206 0,1.19368 -3.16117,3.46901 -4.81956,3.46901 -0.36122,0 -1.43124,-1.03175 -2.37781,-2.29279 z m 149.52683,1.1838 c -1.06703,-0.57887 -1.94005,-1.65206 -1.94005,-2.38486 0,-1.36725 0.56023,-1.57164 6.96765,-2.54201 3.4027,-0.51532 3.40448,-0.4864 0.22971,3.74307 -1.92516,2.56473 -2.48111,2.68992 -5.25731,1.1838 z m 20.119349,-2.60958 c -2.417739,-1.97889 -4.313609,-3.68026 -4.213049,-3.78082 0.16731,-0.1673 27.411699,-4.65913 34.006019,-5.60662 2.01925,-0.29014 -1.17061,1.51609 -11.21485,6.35027 -7.72021,3.71566 -14.06948,6.72861 -14.10949,6.69544 -0.04,-0.0332 -2.05089,-1.67938 -4.46863,-3.65827 z m -161.438649,0.11345 c -0.6788,-1.09832 0.14975,-1.5438 1.48331,-0.7975 1.06138,0.59398 1.06945,0.71065 0.0755,1.09207 -0.61206,0.23487 -1.31352,0.10231 -1.55881,-0.29457 z m 136.55735,0.0777 c -0.85571,-0.553 -0.75446,-0.68593 0.52911,-0.69467 0.87302,-0.006 1.58731,0.30666 1.58731,0.69467 0,0.88391 -0.74868,0.88391 -2.11642,0 z m -130.69458,-2.39693 c -1.16784,-0.88638 -4.05103,-8.02702 -4.05103,-10.03297 0,-1.27276 7.75369,-6.26972 9.69016,-6.24494 1.20419,0.0154 20.66795,13.26157 24.49007,16.66683 0.36861,0.32841 -5.98066,0.58701 -14.10949,0.57467 -11.20236,-0.017 -15.07982,-0.25023 -16.01971,-0.96359 z m 96.51434,0.38141 c 0.36861,-0.33254 5.6688,-4.14209 11.77818,-8.46568 7.72309,-5.46561 11.70606,-7.86108 13.07068,-7.86108 1.92023,0 3.14567,0.6351 7.69764,3.98944 l 2.24636,1.65534 -1.45423,4.40873 c -2.28918,6.93999 -2.01996,6.84392 -19.22914,6.86218 -8.25927,0.009 -14.48401,-0.25105 -14.10949,-0.58893 z m 33.47476,-0.0893 c 0,-0.5163 1.8852,-2.29032 3.2491,-3.05748 0.5062,-0.28472 0.66767,0.14858 0.46006,1.2346 -0.20558,1.07543 -0.92535,1.78903 -2.01451,1.99724 -0.93206,0.17817 -1.69465,0.0997 -1.69465,-0.17436 z m -136.89923,-1.87302 c -0.9955,-2.61837 -0.52516,-2.68277 1.80794,-0.24754 1.95222,2.03768 1.9678,2.10906 0.46021,2.10906 -1.03716,0 -1.79772,-0.62421 -2.26815,-1.86152 z m 141.5231,-0.53816 c 0.2509,-1.20225 0.8858,-2.63608 1.4109,-3.18629 0.81986,-0.85907 1.36236,-0.71791 3.84015,0.9992 3.48023,2.4118 4.02504,3.16222 2.33615,3.21787 -0.70192,0.0231 -2.79882,0.29249 -4.65979,0.59858 l -3.38358,0.55652 z m -149.23146,1.07223 -2.4545,-0.43624 3.12259,-2.29278 c 3.53516,-2.59573 4.71467,-2.83529 5.21027,-1.05821 0.18936,0.67902 0.54961,1.94887 0.80055,2.82189 0.41093,1.42963 0.22377,1.57809 -1.88408,1.49444 -1.28718,-0.0511 -3.44485,-0.28917 -4.79483,-0.5291 z m 9.30339,-2.40299 c -1.63283,-1.66373 -2.96878,-3.39861 -2.96878,-3.85529 0,-0.78389 2.72435,-2.67163 3.13418,-2.1717 0.29863,0.3643 3.14237,9.05195 2.96298,9.05195 -0.0878,0 -1.49555,-1.36122 -3.12838,-3.02496 z m 24.26976,-5.33395 c -6.16539,-4.52988 -11.47267,-8.94674 -11.79396,-9.81526 -0.32128,-0.86851 -1.03661,-1.57911 -1.58962,-1.57911 -1.41581,0 -2.09335,-2.19145 -1.00597,-3.25377 0.49927,-0.48776 3.26263,-2.79835 6.14081,-5.13462 3.77906,-3.06755 5.52952,-4.08187 6.30007,-3.65065 0.80557,0.45082 14.2167,30.19752 14.2167,31.5335 0,0.76156 -2.041,-0.58603 -12.26803,-8.10009 z m 77.09841,6.83226 c 3.73045,-9.55487 12.88119,-29.87208 13.64729,-30.30081 1.28545,-0.71938 13.13891,8.39841 13.19439,10.14925 0.0218,0.68734 -0.75405,1.61132 -1.72408,2.0533 -0.97002,0.44197 -1.77277,1.30819 -1.78387,1.92493 -0.0163,0.90401 -20.98201,16.69484 -23.34692,17.58427 -0.36391,0.13687 -0.35834,-0.45934 0.0132,-1.41094 z m 33.23056,0.64352 c 0,-0.29649 1.28465,-4.16356 2.47045,-7.43661 0.24956,-0.68882 0.67867,-0.72594 1.75193,-0.15154 2.60163,1.39235 1.73237,3.43001 -2.9878,7.00383 -0.67902,0.5141 -1.23458,0.77705 -1.23458,0.58432 z m -150.26605,-1.27492 c 0,-0.41091 0.31747,-0.5509 0.70548,-0.3111 0.38801,0.23981 0.70547,0.576 0.70547,0.74711 0,0.17111 -0.31746,0.3111 -0.70547,0.3111 -0.38801,0 -0.70548,-0.3362 -0.70548,-0.74711 z m 167.55729,0.0301 c 0.24371,-0.39434 0.73864,-0.53433 1.09984,-0.3111 0.97853,0.60476 0.79607,1.02809 -0.44312,1.02809 -0.60491,0 -0.90044,-0.32265 -0.65672,-0.71699 z m -189.77973,-3.16643 c -10.08829,-1.67158 -18.08514,-3.06896 -17.77079,-3.10528 0.31435,-0.0363 7.73156,-1.03284 16.48269,-2.21447 8.75113,-1.18162 16.16487,-2.05465 16.47498,-1.94005 0.31011,0.11459 2.01651,2.08479 3.79199,4.37821 2.48832,3.21422 3.04844,4.3864 2.444,5.11469 -1.0053,1.21132 -0.007,1.31535 -21.42287,-2.2331 z m 23.9263,2.37566 c -0.79437,-1.28532 5.44583,-5.93223 7.10913,-5.29396 1.7042,0.65396 1.26621,1.47874 -2.04994,3.86022 -3.36226,2.41459 -4.29042,2.67763 -5.05919,1.43374 z m 160.0116,-1.46876 c -2.67807,-1.98671 -2.89524,-2.35263 -1.95461,-3.29326 0.94063,-0.94064 1.39297,-0.81571 4.07103,1.12427 1.65705,1.20036 3.01282,2.60671 3.01282,3.12522 0,1.70212 -2.06467,1.31721 -5.12924,-0.95623 z m 8.11259,1.3892 c -1.05008,-0.79388 -0.84896,-1.30408 2.01617,-5.11469 1.75043,-2.32807 3.44831,-4.32662 3.77308,-4.44121 0.60184,-0.21236 32.631409,3.98707 32.966639,4.32229 0.10112,0.10113 -2.5821,0.6042 -5.96273,1.11793 -3.38062,0.51374 -11.69623,1.84835 -18.47912,2.96579 -14.416229,2.37501 -12.859009,2.24991 -14.314039,1.14989 z m -172.14662,-5.44911 c -1.44086,-1.92998 -2.61975,-3.79054 -2.61975,-4.13458 0,-0.34405 1.65833,-0.82194 3.68517,-1.06199 3.45976,-0.40976 3.82782,-0.29818 6.01758,1.82421 l 2.33241,2.26066 -2.66658,2.28389 c -1.46661,1.25614 -2.99564,2.2958 -3.39783,2.31037 -0.40219,0.0146 -1.91014,-1.55258 -3.351,-3.48256 z m 166.8269,1.24515 -2.94559,-2.2639 2.22249,-2.29303 c 2.0331,-2.09763 2.49861,-2.26031 5.46288,-1.90902 5.22661,0.61938 5.22511,0.61591 2.07658,4.82605 -1.60569,2.14709 -3.13348,3.9038 -3.3951,3.9038 -0.26162,0 -1.80118,-1.01875 -3.42126,-2.2639 z m -154.64622,-1.27245 c -0.80678,-0.49862 -0.84584,-0.82379 -0.17907,-1.49057 0.66678,-0.66677 0.95383,-0.58959 1.31584,0.35379 0.58946,1.53612 0.1769,1.94867 -1.13677,1.13678 z m 147.46949,0.18535 c 0.0249,-1.21727 1.30211,-2.43666 2.061,-1.96764 0.62026,0.38335 0.61844,0.74711 -0.008,1.50133 -0.88504,1.06641 -2.07124,1.33577 -2.05349,0.46631 z m -145.70202,-1.6212 c -0.49422,-1.55718 0.68707,-3.49352 2.13127,-3.49352 1.45041,0 1.72041,2.63868 0.39293,3.84003 -1.59075,1.43961 -1.974,1.387 -2.5242,-0.34651 z m 142.87692,0.39575 c -0.85497,-1.03017 -0.59621,-3.36015 0.57167,-5.14774 0.76501,-1.17095 2.9481,-0.33988 2.9481,1.12231 0,0.87409 -0.18813,0.9357 -0.84657,0.27726 -1.41162,-1.41162 -2.28405,-0.94607 -0.96287,0.51382 0.78641,0.86897 1.06357,1.88834 0.76727,2.8219 -0.54844,1.72799 -1.28416,1.85047 -2.4776,0.41245 z m -190.83843,-0.70395 c 0.38801,-0.17841 5.94362,-1.93759 12.3458,-3.90931 6.40218,-1.97171 12.02575,-3.71221 12.49683,-3.86776 0.79662,-0.26306 4.18975,3.67315 3.62968,4.21061 -0.13934,0.13371 -5.49148,0.91379 -11.89366,1.73351 -16.06465,2.0569 -17.38266,2.20262 -16.57865,1.83295 z m 234.922979,-0.42702 c -2.32807,-0.32836 -8.28051,-1.1245 -13.22765,-1.7692 -4.94714,-0.6447 -8.98338,-1.36908 -8.96943,-1.60974 0.014,-0.24067 0.74174,-1.31255 1.61729,-2.38198 l 1.59192,-1.9444 10.19941,3.22289 c 17.61864,5.5673 18.05383,5.78926 8.78846,4.48243 z m -192.840239,-1.58617 c -1.39991,-1.49014 -1.45364,-1.75133 -0.44032,-2.14018 0.6348,-0.24359 1.94296,-0.4429 2.90703,-0.4429 1.49483,0 1.71998,0.28468 1.52961,1.93403 -0.28969,2.50989 -1.98889,2.78586 -3.99632,0.64905 z m 153.86278,1.18255 c -1.06183,-0.42846 -1.17196,-2.79758 -0.15916,-3.42353 0.39748,-0.24565 1.69356,-0.2334 2.88019,0.0272 l 2.15749,0.47387 -1.59221,1.69483 c -1.65038,1.75675 -1.81893,1.81971 -3.28631,1.22761 z m -144.03493,-1.78182 c -0.69834,-1.79618 0.62503,-3.39476 2.81033,-3.39476 0.65336,0 2.25937,-0.19108 3.5689,-0.42462 l 2.38098,-0.42462 -2.11642,1.77909 c -1.16404,0.97849 -2.9924,2.30038 -4.06303,2.93753 -1.88047,1.11909 -1.96815,1.10304 -2.58076,-0.47262 z m 132.7033,-1.03284 c -2.0242,-1.41703 -3.57919,-2.67758 -3.45554,-2.80124 0.43084,-0.43084 7.64567,0.95222 8.28087,1.58742 0.68384,0.68385 0.1393,3.79023 -0.66443,3.79023 -0.26429,0 -2.13669,-1.15939 -4.1609,-2.57641 z m -137.57837,-0.002 c 0.13611,-0.70676 0.79938,-1.39131 1.47395,-1.52122 1.70753,-0.32884 1.53686,1.06245 -0.24748,2.0174 -1.26232,0.67557 -1.43841,0.60433 -1.22647,-0.49618 z m -18.64018,-1.98518 c -1.73538,-2.38659 -1.57372,-2.85532 1.28762,-3.73349 2.38384,-0.73162 2.67782,-0.63349 5.35887,1.78867 2.49878,2.2575 2.68153,2.62381 1.53428,3.0753 -0.71632,0.2819 -2.57224,0.52488 -4.12429,0.53995 -2.18726,0.0212 -3.09955,-0.35442 -4.05648,-1.67043 z m 176.35365,1.14902 c -1.05969,-0.41895 -0.79174,-0.87317 1.76369,-2.98974 2.71354,-2.24752 3.24125,-2.42888 5.30601,-1.82352 2.605269,0.76383 2.751459,1.22867 1.153439,3.66756 -0.918839,1.40233 -1.703919,1.72927 -4.056469,1.68928 -1.60442,-0.0273 -3.47942,-0.27188 -4.16667,-0.54358 z m -168.28834,-3.01855 c -1.67525,-1.58258 -2.94511,-2.93696 -2.8219,-3.00973 0.12321,-0.0728 2.36277,-0.80487 4.97679,-1.62687 l 4.75277,-1.49455 0.75665,2.93138 c 0.41615,1.61226 0.91787,3.48694 1.11493,4.16596 0.28444,0.98012 -0.0758,1.23458 -1.74798,1.23458 -1.15844,0 -2.52905,0.15224 -3.0458,0.33832 -0.51675,0.18608 -2.31021,-0.95651 -3.98546,-2.53909 z m 161.59911,2.39574 c -2.49165,-0.30909 -2.53288,-0.74517 -0.59363,-6.27827 l 0.77218,-2.2032 4.76195,1.42646 c 2.61907,0.78455 4.76195,1.64563 4.76195,1.9135 0,0.90067 -5.57261,5.65322 -6.4949,5.53911 -0.50192,-0.0621 -1.94532,-0.24101 -3.20755,-0.3976 z m -152.7231,-4.60419 c -0.57894,-2.03705 -0.91833,-3.94184 -0.75419,-4.23284 0.83613,-1.48244 2.29323,-0.11763 3.64462,3.41378 1.84601,4.82393 1.85697,4.5228 -0.16448,4.5228 -1.41464,0 -1.83606,-0.57258 -2.72595,-3.70374 z m 141.83254,1.67288 -2.27293,-2.03087 3.7429,-1.89667 c 2.0586,-1.04317 3.90241,-1.73717 4.09737,-1.54221 0.53876,0.53876 -1.92716,7.50061 -2.65675,7.50061 -0.35071,0 -1.66047,-0.91389 -2.91059,-2.03086 z m 5.90152,-2.23884 c 1.07193,-3.17416 1.73887,-4.20843 2.59927,-4.0309 1.21558,0.25081 1.21927,1.05657 0.0259,5.65508 -0.55274,2.12988 -1.01601,2.64552 -2.37679,2.64552 h -1.69024 z m -143.24894,1.97691 c -0.92093,-2.50006 -1.55763,-5.46742 -1.17312,-5.46742 0.19281,0 2.06937,0.84298 4.17015,1.8733 l 3.81959,1.8733 -1.96575,1.65407 c -2.47373,2.08151 -4.10045,2.10389 -4.85087,0.0667 z m 6.15258,0.20266 c 1.30923,-1.12224 1.94508,-1.26035 3.05868,-0.66437 1.74302,0.93284 1.6121,1.04499 -1.88961,1.61875 l -2.8219,0.46238 z m 126.49392,0.87719 -1.66054,-0.31533 1.55284,-1.08765 c 1.43145,-1.00263 1.67003,-0.97046 3.05189,0.4114 1.45021,1.45021 1.45372,1.49592 0.1077,1.40298 -0.76524,-0.0528 -2.13859,-0.23797 -3.05189,-0.4114 z m -122.85569,-2.31443 c -0.55955,-0.34581 -0.78316,-0.86295 -0.49692,-1.14919 0.28624,-0.28624 0.89081,-0.15006 1.34349,0.30262 0.45268,0.45268 0.67629,0.96982 0.49691,1.14919 -0.17937,0.17938 -0.78394,0.0432 -1.34348,-0.30262 z m 121.11712,-0.43258 c 0.42625,-1.11079 1.36467,-1.28172 1.93859,-0.3531 0.21254,0.3439 -0.22117,0.78416 -0.96379,0.97836 -0.94533,0.24721 -1.23765,0.0597 -0.9748,-0.62526 z m -161.32916,-7.75222 c -3.2981,-4.53457 -6.93869,-9.54809 -8.0902,-11.14116 -1.32667,-1.83538 1.25778,0.24303 7.05474,5.6734 13.99738,13.11223 13.7222,12.72163 9.41219,13.35992 -2.33579,0.34593 -2.49209,0.19866 -8.37673,-7.89216 z m 192.41814,7.6985 c -0.67902,-0.17745 -1.24207,-0.53745 -1.25123,-0.80001 -0.009,-0.26255 4.673429,-4.9869 10.405749,-10.49854 5.73232,-5.51164 10.10493,-10.01976 9.71692,-10.01805 -0.38801,0.002 -5.42792,4.54387 -11.1998,10.09369 l -10.494329,10.09057 -5.02611,-1.5891 c -8.21082,-2.59603 -7.94614,-2.89529 11.201809,-12.66543 18.60321,-9.4922 18.76887,-9.56687 17.31304,-7.80378 -0.56501,0.68426 -1.08655,1.64783 -1.15897,2.14127 -0.0724,0.49343 -3.57843,5.52716 -7.79114,11.18605 -7.7013,10.3451 -8.21559,10.77807 -11.715939,9.86333 z m -191.40291,-12.71506 -11.95009,-11.58534 17.13691,8.66516 c 19.86461,10.04441 20.20846,10.42483 11.74457,12.99366 l -4.9813,1.51185 z m 32.14206,9.70246 -3.88011,-2.02138 2.11643,-0.81856 c 4.76688,-1.84368 5.67527,-1.72966 7.23129,0.9076 1.06001,1.79657 1.24193,2.67236 0.67325,3.24104 -1.10695,1.10695 -1.77878,0.96378 -6.14086,-1.3087 z m 130.08685,1.09342 c -0.20991,-0.547 0.14351,-2.01007 0.78536,-3.25127 1.25282,-2.4227 2.28849,-2.52293 7.04804,-0.68209 l 2.11642,0.81856 -3.88011,2.02138 c -4.41698,2.30108 -5.52939,2.50147 -6.06971,1.09342 z m -76.64839,-11.43078 c -7.27453,-6.3826 -13.22642,-11.92134 -13.22642,-12.30832 0,-0.38697 3.09527,-2.72302 6.87838,-5.19121 6.19942,-4.04465 6.99554,-4.38431 8.06538,-3.44102 0.65285,0.57563 1.02835,1.46003 0.83445,1.96534 -0.1939,0.5053 0.25257,1.3485 0.99216,1.87377 0.896,0.63636 2.78398,5.53683 5.65806,14.68612 2.37235,7.5521 4.24834,13.7961 4.16888,13.87556 -0.0795,0.0795 -6.09636,-5.07765 -13.37089,-11.46024 z m 15.9914,10.66163 c 1.08204,-2.93998 6.96484,-21.27977 7.64521,-23.83419 0.39113,-1.46847 1.30466,-2.98759 2.03008,-3.37582 1.32541,-0.70934 1.88971,-4.18361 0.67951,-4.18361 -0.35169,0 -0.47433,-0.63135 -0.27253,-1.40301 0.20179,-0.77166 0.6344,-1.23769 0.96135,-1.03562 0.32695,0.20207 0.42451,0.81026 0.21681,1.35154 -0.26335,0.68626 0.0224,0.87952 0.94419,0.63848 1.65487,-0.43276 14.5029,7.85706 14.18182,9.15041 -0.18828,0.75838 -4.7905,4.88955 -25.20545,22.6256 -1.6559,1.4386 -1.68673,1.44033 -1.18099,0.0662 z m -1.70431,0.2632 c 0,-0.20445 -1.88995,-6.33426 -4.19987,-13.62181 -2.82006,-8.89694 -4.07017,-13.89861 -3.80507,-15.2241 0.34582,-1.72909 3.44581,-4.62084 7.77207,-7.24998 1.46363,-0.88948 8.51269,4.8087 9.06618,7.32874 0.33181,1.51072 -0.65959,5.6126 -3.611,14.94046 -3.42909,10.83757 -5.22231,15.58533 -5.22231,13.82669 z m -61.59763,-3.10752 c -0.90469,-1.89715 -0.97794,-2.56077 -0.30703,-2.7816 5.33872,-1.75723 12.76375,-3.89085 12.93707,-3.71752 0.22665,0.22665 -10.64876,8.9907 -11.15667,8.9907 -0.15687,0 -0.81989,-1.12121 -1.47337,-2.49158 z m 116.39172,-2.11523 c -3.03818,-2.51039 -5.35618,-4.56436 -5.15111,-4.56436 0.30619,0 9.74259,2.83663 12.96715,3.89799 0.6709,0.22083 0.59765,0.88445 -0.30703,2.7816 -0.65349,1.37037 -1.36745,2.48203 -1.5866,2.47036 -0.21914,-0.0117 -2.88423,-2.07519 -5.92241,-4.58559 z m -131.33307,1.79299 c -0.24716,-0.3999 0.036,-0.51817 0.66384,-0.27726 1.22217,0.469 1.44579,0.97466 0.43101,0.97466 -0.36511,0 -0.8578,-0.31383 -1.09485,-0.6974 z m 152.59794,0.21548 c 0.50926,-0.20379 1.11773,-0.17873 1.35215,0.0557 0.23443,0.23442 -0.18224,0.40116 -0.92593,0.37053 -0.82184,-0.0339 -0.989,-0.20102 -0.42622,-0.42623 z m -149.06467,-0.9114 c -0.25332,-0.40988 -1.38187,-3.47078 -2.5079,-6.80201 l -2.04731,-6.05676 1.56668,0.37587 c 0.86168,0.20673 2.75741,0.59165 4.21274,0.85539 2.33443,0.42304 2.90427,0.96396 4.8385,4.59295 1.20584,2.26239 2.14509,4.36989 2.08721,4.68334 -0.0951,0.5153 -1.79222,1.23536 -6.16139,2.61424 -0.84823,0.2677 -1.73284,0.15069 -1.98853,-0.26302 z m 141.96583,-0.59528 c -1.84305,-0.59513 -3.351,-1.38264 -3.351,-1.75002 0,-0.36738 1.00768,-2.50093 2.23928,-4.74123 2.16321,-3.93486 2.37095,-4.0997 6.11413,-4.85144 2.13116,-0.42799 3.95729,-0.69573 4.05806,-0.59495 0.48289,0.48289 -4.34976,13.2078 -4.98278,13.12023 -0.39968,-0.0553 -2.23464,-0.58746 -4.07769,-1.18259 z m -145.1142,-0.0899 c -1.02124,-0.6461 -4.50558,-12.03055 -3.87505,-12.66108 0.7274,-0.7274 1.80367,1.31411 3.78869,7.18656 2.0563,6.08335 2.06646,6.72724 0.0864,5.47452 z m 151.63984,-0.31522 c 0,-1.31709 3.5325,-11.12975 4.32765,-12.02145 1.28372,-1.43959 1.18282,0.27493 -0.34579,5.8758 -0.94809,3.47382 -2.0865,6.13786 -2.79144,6.53236 -0.88275,0.49401 -1.19042,0.39407 -1.19042,-0.38671 z m -170.83103,-9.4641 c -8.78866,-4.53649 -15.9161,-8.31658 -15.83874,-8.40018 0.0773,-0.0836 6.79189,1.10664 14.92118,2.645 8.12929,1.53836 14.81806,2.79725 14.86394,2.79754 0.0459,2.9e-4 0.62285,1.98467 1.28218,4.40974 0.65933,2.42507 1.35748,4.96477 1.55145,5.64379 0.19397,0.67902 0.0932,1.21607 -0.22397,1.19344 -0.31715,-0.0226 -7.76737,-3.75283 -16.55604,-8.28933 z m 29.80978,4.12898 c -2.69683,-5.05976 -3.26905,-4.89199 8.7448,-2.56398 9.47784,1.83659 9.48374,1.72799 -0.25925,4.76681 -2.47065,0.77059 -4.87925,1.54964 -5.35243,1.73122 -0.49999,0.19187 -1.81226,-1.45585 -3.13312,-3.93405 z m 122.67891,1.97153 c -3.6861,-1.1693 -6.93226,-2.34443 -7.21368,-2.61139 -0.28142,-0.26697 3.63164,-1.22043 8.69569,-2.11882 5.06405,-0.89838 9.36279,-1.478 9.55275,-1.28804 0.28472,0.28472 -3.87738,8.36136 -4.22372,8.19623 -0.06,-0.0286 -3.12493,-1.00868 -6.81104,-2.17798 z m 22.07141,1.31096 c 0.19396,-0.50545 0.91376,-2.9658 1.59956,-5.46743 0.6858,-2.50163 1.3059,-4.63186 1.378,-4.73385 0.18772,-0.26556 29.543879,-5.77495 29.737809,-5.58101 0.22418,0.22418 -31.871499,16.70129 -32.532369,16.70129 -0.29461,0 -0.37696,-0.41355 -0.183,-0.919 z m -138.47468,-7.10666 c -4.46213,-0.84845 -8.47523,-1.76812 -8.91801,-2.04372 -0.70979,-0.44179 -9.07706,-15.35531 -17.90114,-31.90635 l -3.00896,-5.64379 20.55785,20.4542 c 11.30681,11.2498 20.55785,20.53561 20.55785,20.63512 0,0.43523 -3.73897,-0.0601 -11.28759,-1.49546 z m 128.39634,-19.1351 c 11.44139,-11.44633 20.89508,-20.8115 21.0082,-20.8115 0.11312,0 -0.12182,0.61193 -0.52209,1.35984 -0.40027,0.74792 -0.59123,1.77967 -0.42434,2.2928 0.16688,0.51312 -2.13587,8.07517 -5.11722,16.80456 l -5.42065,15.87161 -3.38589,0.61336 c -1.86224,0.33735 -3.54738,0.45187 -3.74476,0.25449 -0.19738,-0.19738 3.66839,-7.70739 8.59059,-16.68891 4.92221,-8.98152 8.78483,-16.49467 8.58361,-16.69589 -0.20122,-0.20122 -4.55522,7.35094 -9.67556,16.78258 -5.12033,9.43165 -9.40279,17.24282 -9.51658,17.35818 -0.27895,0.28279 -18.79232,3.65187 -20.12411,3.6622 -0.57955,0.005 8.30741,-9.357 19.7488,-20.80332 z m -144.88555,15.96607 c -1.94325,-0.42723 -2.25516,-1.11484 -7.55079,-16.64581 -3.0381,-8.9101 -5.45158,-16.27242 -5.36329,-16.36071 0.21588,-0.21588 18.1157,32.52806 18.1157,33.13884 0,0.5606 -2.31811,0.50163 -5.20162,-0.13232 z m -21.95915,-4.0823 c -8.53624,-1.64637 -15.5998,-3.00958 -15.69681,-3.02937 -1.39107,-0.28372 19.77708,-30.59 21.29367,-30.48597 0.61223,0.042 10.45232,35.27763 10.08843,36.12489 -0.0907,0.21111 -7.14905,-0.96319 -15.68529,-2.60955 z m 17.04965,2.75482 c -0.61901,-1.03075 -4.01687,-14.50252 -3.73016,-14.78923 0.16017,-0.16017 1.32309,2.8241 2.58426,6.63172 1.26117,3.80761 2.43912,7.31976 2.61766,7.80478 0.34549,0.93854 -0.93558,1.24558 -1.47176,0.35273 z m 163.05558,-7.20163 c 1.40471,-4.25191 2.66403,-7.62073 2.79848,-7.48629 0.57955,0.57956 -3.77122,15.21703 -4.52304,15.21703 -0.53072,0 0.0904,-2.78435 1.72456,-7.73074 z m 0.42542,5.79068 c 0.20737,-0.67902 2.44163,-8.81787 4.96503,-18.08634 2.5234,-9.26847 4.738549,-17.0023 4.922549,-17.18631 0.184,-0.184 3.28864,3.71531 6.89921,8.66512 3.61057,4.94982 8.54654,11.71767 10.96882,15.03967 2.78866,3.82445 4.15776,6.2864 3.73242,6.71174 -0.62755,0.62756 -27.769949,6.01088 -30.582929,6.06571 -0.89907,0.0175 -1.16948,-0.34385 -0.9051,-1.20959 z m -109.63047,-5.47362 c 0,-0.34722 6.63283,-9.81645 7.87093,-11.23678 0.54993,-0.63086 4.12213,2.09639 4.12213,3.1471 0,0.26213 -2.69844,2.27238 -5.99653,4.46721 -3.29809,2.19484 -5.99653,3.82495 -5.99653,3.62247 z m 56.87065,-1.11344 c -0.19654,-0.93624 -0.89237,-5.74712 -1.54629,-10.69084 l -1.18894,-8.98858 8.38238,-8.93956 c 4.61031,-4.91675 11.31965,-11.98312 14.90966,-15.70302 l 6.52728,-6.76347 -11.04346,21.8697 c -17.02218,33.70955 -15.62969,31.1733 -16.04063,29.21577 z m -62.72857,-4.3815 c -2.39,-4.5309 -23.06076,-45.19371 -23.65688,-46.53702 -0.21091,-0.47527 23.50608,24.31653 27.98664,29.25494 l 1.73146,1.90839 -1.24311,9.73194 c -0.68371,5.35257 -1.44444,9.95486 -1.69052,10.22733 -0.24609,0.27246 -1.6535,-1.79105 -3.12759,-4.58558 z m 4.49403,3.70218 c 0.0259,-0.95063 0.58144,-5.47356 1.23458,-10.05096 l 1.18752,-8.32254 3.44183,3.50066 3.44182,3.50066 -4.08491,5.8801 c -5.20371,7.49055 -5.27736,7.56803 -5.22084,5.49208 z m 49.33781,-2.09699 c -2.90916,-1.92585 -5.3756,-3.76019 -5.48098,-4.07631 -0.10537,-0.31612 0.62939,-1.34603 1.63281,-2.28869 l 1.8244,-1.71393 1.35517,1.75459 c 3.56457,4.6152 7.04748,9.86541 6.53216,9.84672 -0.31579,-0.0115 -2.95439,-1.59653 -5.86356,-3.52238 z m 3.07216,-2.66487 -4.32814,-6.09602 3.1967,-3.74179 c 1.75819,-2.05798 3.29364,-3.64486 3.4121,-3.52639 0.33274,0.33273 2.54126,18.96644 2.27904,19.22866 -0.12736,0.12736 -2.17922,-2.51165 -4.5597,-5.86446 z m -36.08901,-0.32126 c -0.65756,-0.79335 -0.69409,-1.24247 -0.12943,-1.59145 1.0444,-0.64548 1.57825,-0.033 1.28426,1.47343 -0.21508,1.10212 -0.32947,1.11381 -1.15483,0.11802 z m 1.97431,-1.06118 c 0,-1.18269 0.55376,-2.29255 1.41095,-2.82788 1.69154,-1.05638 1.69705,-1.02075 0.34327,2.21929 -1.27834,3.05951 -1.75422,3.2246 -1.75422,0.60859 z m 3.14934,-1.53072 c 0.96919,-1.9126 2.07274,-3.6694 2.45235,-3.90401 0.67857,-0.41938 3.56948,1.00343 3.56948,1.75677 0,0.44135 -6.8203,5.62468 -7.40104,5.62468 -0.21062,0 0.41002,-1.56485 1.37921,-3.47744 z m 11.82914,0.83191 c -2.00713,-1.45504 -3.65868,-2.80726 -3.67011,-3.00493 -0.0114,-0.19767 0.65437,-0.78104 1.47955,-1.29638 1.26623,-0.79077 1.66432,-0.77298 2.55132,0.11402 0.92531,0.92532 3.92028,6.83282 3.46407,6.83282 -0.0965,0 -1.81771,-1.19048 -3.82483,-2.64553 z m 3.83399,0.12462 c -1.47533,-3.0938 -1.32843,-3.42363 0.80735,-1.81261 1.26322,0.95285 1.48226,1.55675 1.01893,2.80924 -0.56317,1.52241 -0.64679,1.47678 -1.82628,-0.99663 z m -94.24253,-1.41799 c 0.0338,-0.82183 0.20102,-0.989 0.42622,-0.42622 0.20379,0.50926 0.17873,1.11774 -0.0557,1.35216 -0.23443,0.23442 -0.40116,-0.18225 -0.37053,-0.92594 z m 69.49063,-0.93982 -1.97057,-2.05683 2.22521,-3.23423 c 1.22386,-1.77883 2.3361,-3.23423 2.47163,-3.23423 0.13553,0 0.6144,2.11307 1.06415,4.6957 0.65943,3.78672 0.6393,4.80886 -0.10395,5.28026 -1.35992,0.8625 -1.53712,0.79277 -3.68647,-1.45067 z m 28.716,1.49074 c -0.66097,-0.42001 -0.67823,-1.62224 -0.0755,-5.25955 0.42973,-2.5933 1.00058,-4.57957 1.26858,-4.41394 0.26799,0.16563 1.38371,1.59472 2.47937,3.17577 l 1.99212,2.87462 -2.00675,2.09459 c -2.16956,2.26454 -2.36864,2.34773 -3.65781,1.52851 z m -24.00899,-5.96008 c -0.39687,-2.42507 -0.67768,-4.46321 -0.62402,-4.5292 0.0537,-0.066 1.64516,1.02633 3.53665,2.4274 l 3.43907,2.54739 -2.21803,1.98181 c -1.21992,1.09 -2.48669,1.98181 -2.81506,1.98181 -0.32837,0 -0.92174,-1.98414 -1.31861,-4.40921 z m 19.39839,2.91707 c -1.06703,-0.79609 -1.93328,-1.81779 -1.92499,-2.27044 0.008,-0.45265 1.29694,-1.73013 2.86368,-2.83885 1.56675,-1.10871 2.67973,-2.18474 2.4733,-2.39117 -0.20642,-0.20643 -1.4739,0.46261 -2.81661,1.48674 -1.34271,1.02414 -2.74597,1.86207 -3.11836,1.86207 -0.62118,0 -1.81794,-2.13944 -1.37373,-2.45581 5.88073,-4.18836 6.83661,-4.61524 7.51136,-3.35446 1.09974,2.05489 0.11483,11.49241 -1.19303,11.43171 -0.26486,-0.0123 -1.35459,-0.67369 -2.42162,-1.46979 z m -9.38907,-0.9334 c -1.35372,-1.00296 -1.35336,-1.02648 0.0315,-2.05222 0.9743,-0.72164 1.77993,-0.83479 2.64553,-0.37154 1.46091,0.78186 1.56037,1.42945 0.39803,2.59178 -1.08273,1.08274 -1.41111,1.0648 -3.07507,-0.16802 z m -21.02573,-4.33059 -3.4304,-3.85623 0.4829,-3.86499 c 0.26559,-2.12574 0.62882,-3.86498 0.80717,-3.86498 0.44169,0 10.86179,7.86348 10.86179,8.1968 0,0.30028 -5.01025,7.34502 -5.18086,7.28463 -0.0606,-0.0214 -1.65388,-1.7743 -3.5406,-3.89523 z m 39.21026,0.98256 c -1.21336,-1.76357 -2.29982,-3.54098 -2.41434,-3.94981 -0.11452,-0.40883 2.17276,-2.53306 5.08284,-4.72052 5.1224,-3.85042 5.30568,-3.92534 5.74984,-2.3505 1.28307,4.54936 0.70969,6.69944 -2.80639,10.52333 l -3.40583,3.70398 z m -20.60135,1.03644 c 0.006,-0.30466 0.31018,-1.02747 0.67609,-1.60624 0.50105,-0.79252 0.86542,-0.8522 1.47589,-0.24172 0.61047,0.61047 0.44355,1.00702 -0.6761,1.60624 -0.81768,0.43761 -1.48182,0.54638 -1.47588,0.24172 z m 6.14726,-0.266 c -0.68718,-0.40006 -1.06528,-1.02533 -0.84021,-1.3895 0.65865,-1.06572 1.63075,-0.76767 2.44236,0.74884 0.82971,1.55032 0.31435,1.7564 -1.60215,0.64066 z m -10.57269,-2.53055 c -3.10434,-2.29945 -3.94512,-3.6247 -2.93832,-4.6315 0.57772,-0.57772 7.35519,3.74862 7.34214,4.68678 -0.0325,2.33852 -1.19175,2.32397 -4.40382,-0.0553 z m 6.64089,-0.14372 c -0.78276,-0.4961 -0.7488,-0.98698 0.19448,-2.8111 0.62857,-1.21552 1.28529,-2.21004 1.45936,-2.21004 0.17408,0 0.83079,0.99452 1.45936,2.21004 0.94329,1.82412 0.97725,2.315 0.19449,2.8111 -0.52161,0.33058 -1.26584,0.60105 -1.65385,0.60105 -0.38801,0 -1.13224,-0.27047 -1.65384,-0.60105 z m -5.22453,-3.39531 c -1.45504,-0.9992 -2.63529,-2.1706 -2.62277,-2.60312 0.0125,-0.43252 1.27008,-2.51112 2.79458,-4.61913 l 2.77184,-3.83273 1.74699,3.77071 1.747,3.77071 -1.38129,2.70755 c -0.75971,1.48916 -1.61293,2.68847 -1.89606,2.66515 -0.28312,-0.0233 -1.70525,-0.85994 -3.16029,-1.85914 z m 9.01291,-0.17985 c -1.41944,-2.7449 -1.32412,-4.02544 0.56884,-7.64168 l 1.58141,-3.02107 2.9992,4.34632 c 1.64956,2.39048 2.90773,4.39809 2.79593,4.46136 -0.1118,0.0633 -1.54569,0.97486 -3.18642,2.02575 -1.64072,1.05089 -3.14052,1.91071 -3.33288,1.91071 -0.19236,0 -0.8341,-0.93662 -1.42608,-2.08139 z m -38.11373,-9.71724 c -14.19697,-15.05297 -18.38975,-19.61638 -17.28412,-18.81197 0.58201,0.42346 6.93128,5.15193 14.10948,10.50773 7.17821,5.35579 13.12288,9.78702 13.21038,9.84717 0.35918,0.2469 -0.74224,7.43378 -1.13921,7.43351 -0.23696,-1.7e-4 -4.2404,-4.03956 -8.89653,-8.97644 z m 16.32268,5.16045 c -2.66286,-2.05362 -4.72637,-4.01921 -4.58559,-4.368 0.35827,-0.88758 1.06693,-0.57613 6.07614,2.67042 2.8352,1.83755 4.40921,3.3318 4.40921,4.18578 0,0.73045 -0.2381,1.30954 -0.5291,1.28686 -0.29101,-0.0227 -2.70781,-1.72145 -5.37066,-3.77506 z m 6.60524,3.11081 c 0,-0.38801 0.31746,-0.70547 0.70547,-0.70547 0.38801,0 0.70548,0.31746 0.70548,0.70547 0,0.38801 -0.31747,0.70548 -0.70548,0.70548 -0.38801,0 -0.70547,-0.31747 -0.70547,-0.70548 z m 25.07447,0.0487 c -0.22324,-0.3612 -0.0832,-0.85613 0.3111,-1.09984 0.39434,-0.24372 0.71698,0.0518 0.71698,0.65672 0,1.23919 -0.42332,1.42165 -1.02808,0.44312 z m 2.12639,-0.93059 c 0.26835,-0.87302 0.52785,-1.6037 0.57665,-1.62372 0.0488,-0.02 2.17437,-1.36925 4.72349,-2.99827 4.7889,-3.06036 5.59461,-3.39762 5.59461,-2.34186 0,0.62089 -10.16428,8.55117 -10.96009,8.55117 -0.23242,0 -0.20301,-0.71429 0.0653,-1.58732 z m 12.29607,-0.70547 c -0.005,-1.26104 -0.16356,-2.92772 -0.3517,-3.70374 -0.27579,-1.13753 1.29773,-2.62107 8.11989,-7.65558 4.65408,-3.43455 8.29927,-6.50788 8.10042,-6.82963 -0.19886,-0.32175 0.0101,-0.81472 0.46443,-1.09549 0.51586,-0.31882 0.63699,-0.20468 0.32261,0.30399 -0.98202,1.58895 0.60533,0.77203 4.82705,-2.48419 6.55544,-5.05623 6.66726,-5.08149 2.50727,-0.5663 -11.39235,12.36508 -22.89942,24.32373 -23.40524,24.32373 -0.3163,0 -0.57943,-1.03176 -0.58473,-2.29279 z m -38.71086,-0.46437 c -0.64194,-0.40654 -1.77412,-5.67144 -3.29732,-15.33326 -1.27583,-8.09278 -2.62881,-16.61892 -3.00661,-18.94699 -0.3778,-2.32806 -0.62584,-4.29998 -0.5512,-4.38202 0.0747,-0.082 3.38673,6.72318 7.36018,15.12273 l 7.22445,15.27191 -3.02321,4.43739 c -3.24757,4.76671 -3.23882,4.7596 -4.70629,3.83024 z m 19.85532,-3.84475 -2.99199,-4.4408 7.22484,-15.20853 c 3.97366,-8.36469 7.30203,-15.14161 7.39637,-15.05983 0.0943,0.0818 -0.59497,4.88638 -1.53179,10.67688 -0.93683,5.79049 -2.23986,14.179 -2.89564,18.64112 -1.08824,7.40479 -2.07487,9.95295 -3.81552,9.8543 -0.21685,-0.0123 -1.74067,-2.0207 -3.38627,-4.46314 z m -27.25219,-0.91422 c -4.72664,-3.07564 -4.83717,-3.21535 -4.44682,-5.62078 0.22016,-1.35671 1.10607,-8.16135 1.96868,-15.12142 0.86262,-6.96007 1.69308,-12.52998 1.84548,-12.37758 0.38631,0.3863 5.8949,35.1725 5.66596,35.77988 -0.10241,0.27166 -2.36739,-0.92538 -5.0333,-2.6601 z m 17.87881,0.063 c -1.25353,-2.92438 -1.2841,-3.40648 -0.33268,-5.24632 0.57623,-1.11432 1.34314,-2.20862 1.70424,-2.4318 0.70623,-0.43647 3.58634,3.18524 3.58634,4.50979 0,0.99167 -2.71515,6.38863 -3.21405,6.38863 -0.1999,0 -0.98464,-1.44914 -1.74385,-3.2203 z m 16.55138,0.99695 c 0.21774,-1.29923 1.19621,-7.44165 2.17439,-13.64983 0.97818,-6.20817 2.14759,-13.50983 2.59869,-16.22591 l 0.82018,-4.93832 1.5796,11.28759 c 0.86879,6.20817 1.79134,13.08242 2.05013,15.2761 l 0.47052,3.98851 -4.11786,2.76701 c -6.32412,4.24952 -6.02381,4.169 -5.57565,1.49485 z m -48.63089,-8.04344 c -4.26812,-3.26903 -7.68945,-6.23882 -7.60296,-6.59955 0.0865,-0.36072 -3.32624,-2.90701 -7.58385,-5.65842 -4.25761,-2.7514 -7.74111,-5.30064 -7.74111,-5.66498 0,-0.36433 5.00005,-2.25813 11.11123,-4.20844 6.11117,-1.9503 13.87171,-4.48029 17.24565,-5.6222 4.54843,-1.53941 6.29866,-1.86313 6.76964,-1.25209 0.49897,0.64737 -1.85899,21.42721 -3.51702,30.99422 -0.17677,1.01997 -1.60437,0.34203 -7.87931,-3.74175 -4.21488,-2.74307 -7.79208,-4.85874 -7.94934,-4.70148 -0.15726,0.15726 3.21191,2.59871 7.48705,5.42545 4.27514,2.82673 7.77298,5.57234 7.77298,6.10135 0,0.52901 -0.0794,0.94152 -0.17637,0.9167 -0.097,-0.0248 -3.66847,-2.71978 -7.93659,-5.98881 z m 59.61259,5.05547 c 0,-0.54303 3.4921,-3.23504 7.76022,-5.98226 4.26812,-2.74721 7.76022,-4.87009 7.76022,-4.7175 0,0.15259 -2.30161,1.96687 -5.11469,4.03174 -2.81308,2.06487 -6.30518,4.63204 -7.76022,5.70483 -1.80834,1.33326 -2.64553,1.63807 -2.64553,0.96319 z m -1.32528,-8.7596 c -0.46959,-3.76232 -1.34468,-10.36095 -1.94463,-14.66364 -1.12263,-8.05116 -1.08991,-11.30028 0.11202,-11.12339 2.75681,0.40574 34.19876,11.02752 34.19876,11.5531 0,0.55474 -26.27098,18.26942 -30.25843,20.40344 -1.13844,0.60927 -1.33255,0.0411 -2.10772,-6.16951 z m -33.63424,-4.79475 c -9.01045,-18.71966 -9.01657,-18.7633 -1.03045,-7.33685 2.84746,4.07412 6.20209,8.83607 7.45472,10.58212 l 2.27751,3.17463 -1.65133,2.39853 -1.65133,2.39852 z m 11.26482,8.54177 c -0.63362,-0.96703 -0.99388,-2.15752 -0.80058,-2.64553 0.54623,-1.37897 15.55854,-22.18737 15.14572,-20.99331 -1.11756,3.23251 -12.12516,25.39708 -12.61295,25.39708 -0.31908,0 -1.09856,-0.7912 -1.73219,-1.75824 z"
           id="path4" /></g></g></g></svg>
